<mxfile host="app.diagrams.net" agent="Mozilla/5.0 (Windows NT 10.0; Win64; x64) AppleWebKit/537.36 (KHTML, like Gecko) Chrome/134.0.0.0 Safari/537.36 Edg/134.0.0.0" version="26.1.0">
  <diagram name="第 1 页" id="67gQ4JnkG9fl3ow7jxzi">
    <mxGraphModel dx="1166" dy="770" grid="1" gridSize="10" guides="1" tooltips="1" connect="1" arrows="1" fold="1" page="1" pageScale="1" pageWidth="827" pageHeight="1169" math="0" shadow="0">
      <root>
        <mxCell id="0" />
        <mxCell id="1" parent="0" />
        <mxCell id="3yOCJwfLu6yhr36mBVDk-6" style="edgeStyle=orthogonalEdgeStyle;rounded=0;orthogonalLoop=1;jettySize=auto;html=1;" edge="1" parent="1" source="3yOCJwfLu6yhr36mBVDk-1" target="3yOCJwfLu6yhr36mBVDk-2">
          <mxGeometry relative="1" as="geometry" />
        </mxCell>
        <mxCell id="3yOCJwfLu6yhr36mBVDk-1" value="开始" style="rounded=1;whiteSpace=wrap;html=1;arcSize=50;" vertex="1" parent="1">
          <mxGeometry x="390" y="130" width="130" height="40" as="geometry" />
        </mxCell>
        <mxCell id="3yOCJwfLu6yhr36mBVDk-7" style="edgeStyle=orthogonalEdgeStyle;rounded=0;orthogonalLoop=1;jettySize=auto;html=1;" edge="1" parent="1" source="3yOCJwfLu6yhr36mBVDk-2" target="3yOCJwfLu6yhr36mBVDk-3">
          <mxGeometry relative="1" as="geometry" />
        </mxCell>
        <mxCell id="3yOCJwfLu6yhr36mBVDk-2" value="学生申请，填写目标床位、理由" style="rounded=0;whiteSpace=wrap;html=1;" vertex="1" parent="1">
          <mxGeometry x="395" y="228" width="120" height="60" as="geometry" />
        </mxCell>
        <mxCell id="3yOCJwfLu6yhr36mBVDk-8" style="edgeStyle=orthogonalEdgeStyle;rounded=0;orthogonalLoop=1;jettySize=auto;html=1;entryX=0.5;entryY=0;entryDx=0;entryDy=0;" edge="1" parent="1" source="3yOCJwfLu6yhr36mBVDk-3" target="3yOCJwfLu6yhr36mBVDk-4">
          <mxGeometry relative="1" as="geometry" />
        </mxCell>
        <mxCell id="3yOCJwfLu6yhr36mBVDk-3" value="辅导员审批" style="rounded=0;whiteSpace=wrap;html=1;" vertex="1" parent="1">
          <mxGeometry x="395" y="335" width="120" height="60" as="geometry" />
        </mxCell>
        <mxCell id="3yOCJwfLu6yhr36mBVDk-9" style="edgeStyle=orthogonalEdgeStyle;rounded=0;orthogonalLoop=1;jettySize=auto;html=1;entryX=0.5;entryY=0;entryDx=0;entryDy=0;" edge="1" parent="1" source="3yOCJwfLu6yhr36mBVDk-4" target="3yOCJwfLu6yhr36mBVDk-5">
          <mxGeometry relative="1" as="geometry" />
        </mxCell>
        <mxCell id="3yOCJwfLu6yhr36mBVDk-4" value="宿管审批" style="rounded=0;whiteSpace=wrap;html=1;" vertex="1" parent="1">
          <mxGeometry x="395" y="443" width="120" height="60" as="geometry" />
        </mxCell>
        <mxCell id="3yOCJwfLu6yhr36mBVDk-5" value="结束" style="rounded=1;whiteSpace=wrap;html=1;arcSize=50;" vertex="1" parent="1">
          <mxGeometry x="390" y="560" width="130" height="40" as="geometry" />
        </mxCell>
      </root>
    </mxGraphModel>
  </diagram>
</mxfile>
